<svg width="73" height="207" viewBox="0 0 73 207" fill="none" xmlns="http://www.w3.org/2000/svg">
<path d="M19.7465 52.059V2.24392C19.7465 0.897569 20.6441 0 21.9904 0H50.7127C52.059 0 52.9566 0.897569 52.9566 2.24392V48.9175C52.9566 60.5859 57.4444 71.8056 65.0738 80.7812C70.0104 86.6155 72.7031 95.5911 72.7031 104.118V197.017C72.7031 202.402 68.664 206.441 63.2786 206.441H9.42448C4.48785 206.441 0 201.953 0 197.017V103.669C0 96.0399 3.14149 87.0642 8.52691 80.7812C15.2587 72.7031 19.7465 62.8299 19.7465 52.059Z" fill="#D2D6D6"/>
<path d="M55.65 198.812H15.7081C10.7715 198.812 6.73242 194.773 6.73242 189.836V104.567H64.6257V190.285C64.6257 194.773 60.5866 198.812 55.65 198.812Z" fill="#0081BD"/>
<path d="M52.5087 18.4002V2.24392C52.5087 0.897569 51.6111 0 50.2648 0H21.9913C20.645 0 19.7474 0.897569 19.7474 2.24392V18.4002H17.0547V22.888H19.7474H52.5087H55.2014V18.4002H52.5087Z" fill="#003879"/>
<path d="M25.1335 3.14148C24.2359 3.14148 23.7871 3.59027 23.7871 4.48783V16.1562C23.7871 17.0538 24.2359 17.5026 25.1335 17.5026C26.031 17.5026 26.4798 17.0538 26.4798 16.1562V4.48783C26.4798 3.59027 25.5823 3.14148 25.1335 3.14148Z" fill="#1A69B7"/>
<path d="M47.5719 3.14148C46.6744 3.14148 46.2256 3.59027 46.2256 4.48783V16.1562C46.2256 17.0538 46.6744 17.5026 47.5719 17.5026C48.4695 17.5026 48.9183 17.0538 48.9183 16.1562V4.48783C48.9183 3.59027 48.4695 3.14148 47.5719 3.14148Z" fill="#1A69B7"/>
<path d="M30.5172 3.14148C29.6197 3.14148 29.1709 3.59027 29.1709 4.48783V16.1562C29.1709 17.0538 29.6197 17.5026 30.5172 17.5026C31.4148 17.5026 31.8636 17.0538 31.8636 16.1562V4.48783C31.8636 3.59027 31.4148 3.14148 30.5172 3.14148Z" fill="#1A69B7"/>
<path d="M42.1862 3.14148C41.2886 3.14148 40.8398 3.59027 40.8398 4.48783V16.1562C40.8398 17.0538 41.2886 17.5026 42.1862 17.5026C43.0838 17.5026 43.5326 17.0538 43.5326 16.1562V4.48783C43.5326 3.59027 43.0838 3.14148 42.1862 3.14148Z" fill="#1A69B7"/>
<path d="M36.3522 3.14148C35.4546 3.14148 35.0059 3.59027 35.0059 4.48783V16.1562C35.0059 17.0538 35.4546 17.5026 36.3522 17.5026C37.2498 17.5026 37.6986 17.0538 37.6986 16.1562V4.48783C37.6986 3.59027 37.2498 3.14148 36.3522 3.14148Z" fill="#1A69B7"/>
<path d="M35.9039 109.952C51.7667 109.952 64.6261 107.541 64.6261 104.567C64.6261 101.593 51.7667 99.1815 35.9039 99.1815C20.041 99.1815 7.18164 101.593 7.18164 104.567C7.18164 107.541 20.041 109.952 35.9039 109.952Z" fill="#009AE0"/>
</svg>
