<svg width="58" height="58" viewBox="0 0 58 58" fill="none" xmlns="http://www.w3.org/2000/svg">
<path d="M38.8055 33.9781V42.4C38.8055 44.9037 36.7758 46.9337 34.2718 46.9337H12.3735C9.86952 46.9337 7.83984 44.9037 7.83984 42.4V23.6093C13.0009 23.6093 13.0009 24.7427 18.1616 24.7427C23.3227 24.7427 23.3227 23.6093 28.4837 23.6093C33.6445 23.6093 33.6445 24.7427 38.8055 24.7427V30.1018V33.9781Z" fill="#81CAEF"/>
<path d="M50.0032 20.3067V29.1743C50.0032 31.8163 47.8414 33.9781 45.1994 33.9781H38.8055V30.1018H44.9342C45.5902 30.1018 46.1268 29.5651 46.1268 28.9091V20.5719C46.1268 19.916 45.5902 19.3793 44.9342 19.3793H38.8055V15.503H45.1994C47.8414 15.503 50.0032 17.6647 50.0032 20.3067ZM38.8055 19.3793V24.7427C33.6445 24.7427 33.6445 23.6092 28.4837 23.6092C23.3227 23.6092 23.3227 24.7427 18.1616 24.7427C13.0009 24.7427 13.0009 23.6092 7.83984 23.6092V10.9821H38.8055V15.503V19.3793Z" fill="#D4EAF9"/>
<path d="M34.2712 47.6137H12.3729C9.498 47.6137 7.15918 45.2749 7.15918 42.4V10.9821C7.15918 10.6066 7.46379 10.302 7.83923 10.302H38.8049C39.1803 10.302 39.4849 10.6066 39.4849 10.9821V42.4C39.4849 45.2749 37.1461 47.6137 34.2712 47.6137ZM8.51929 11.6621V42.4C8.51929 44.5248 10.248 46.2536 12.3729 46.2536H34.2712C36.3961 46.2536 38.1248 44.5248 38.1248 42.4V11.6621H8.51929Z" fill="black"/>
<path d="M45.198 34.658H38.8041C38.4286 34.658 38.124 34.3534 38.124 33.978C38.124 33.6026 38.4286 33.2979 38.8041 33.2979H45.198C47.4719 33.2979 49.3217 31.4479 49.3217 29.1743V20.3067C49.3217 18.0327 47.4716 16.183 45.198 16.183H38.8041C38.4286 16.183 38.124 15.8784 38.124 15.5029C38.124 15.1275 38.4286 14.8229 38.8041 14.8229H45.198C46.6576 14.8229 48.0333 15.3947 49.0715 16.4332C50.1097 17.4717 50.6818 18.8474 50.6818 20.3067V29.174C50.6818 30.6335 50.11 32.0092 49.0715 33.0475C48.033 34.0857 46.6573 34.658 45.198 34.658Z" fill="black"/>
<path d="M44.9328 30.7818H38.8041C38.4286 30.7818 38.124 30.4772 38.124 30.1017C38.124 29.7263 38.4286 29.4217 38.8041 29.4217H44.9328C45.2156 29.4217 45.4454 29.1916 45.4454 28.9091V20.5719C45.4454 20.2891 45.2153 20.0593 44.9328 20.0593H38.8041C38.4286 20.0593 38.124 19.7547 38.124 19.3793C38.124 19.0038 38.4286 18.6992 38.8041 18.6992H44.9328C45.9653 18.6992 46.8055 19.5394 46.8055 20.5719V28.9091C46.8055 29.9416 45.9653 30.7818 44.9328 30.7818Z" fill="black"/>
<path d="M38.8049 25.4227C36.1507 25.4227 34.8022 25.1266 33.4982 24.8401C32.2081 24.5568 30.9899 24.2893 28.4831 24.2893C25.9763 24.2893 24.7581 24.5568 23.468 24.8401C22.164 25.1266 20.8155 25.4227 18.161 25.4227C15.5068 25.4227 14.1583 25.1266 12.8543 24.8401C11.5645 24.5568 10.3461 24.2893 7.83923 24.2893C7.46379 24.2893 7.15918 23.9847 7.15918 23.6093C7.15918 23.2338 7.46379 22.9292 7.83923 22.9292C10.4934 22.9292 11.8419 23.2253 13.1462 23.5118C14.436 23.7951 15.6545 24.0626 18.1613 24.0626C20.6679 24.0626 21.8863 23.7951 23.1764 23.5118C24.4804 23.2253 25.8289 22.9292 28.4834 22.9292C31.1376 22.9292 32.4861 23.2253 33.7901 23.5118C35.0799 23.7951 36.2983 24.0626 38.8052 24.0626C39.1806 24.0626 39.4852 24.3672 39.4852 24.7427C39.4852 25.1181 39.1806 25.4227 38.8049 25.4227Z" fill="black"/>
</svg>
