<svg width="17" height="18" viewBox="0 0 17 18" fill="none" xmlns="http://www.w3.org/2000/svg">
<path d="M10.8911 2.29717C10.8248 2.23057 10.7459 2.17772 10.659 2.14166C10.5722 2.1056 10.4791 2.08704 10.3851 2.08704C10.291 2.08704 10.1979 2.1056 10.1111 2.14166C10.0242 2.17772 9.94535 2.23057 9.87898 2.29717C9.29259 2.92579 4.1543 8.53139 4.1543 11.7693C4.1543 13.4218 4.81075 15.0066 5.97924 16.1751C7.14774 17.3436 8.73255 18.0001 10.3851 18.0001C12.0376 18.0001 13.6224 17.3436 14.7909 16.1751C15.9594 15.0066 16.6158 13.4218 16.6158 11.7693C16.6158 8.53139 11.4775 2.92579 10.8911 2.29717Z" fill="#008FFB"/>
<path d="M2.83361 12.7107C2.79273 12.3985 2.77122 12.0841 2.76922 11.7692C2.76922 9.0429 5.44776 5.35014 7.36821 3.05238C6.7451 2.09948 6.08625 1.17044 5.39306 0.26723C5.32829 0.18396 5.24534 0.116595 5.15055 0.0702802C5.05576 0.0239657 4.95164 -7.3027e-05 4.84614 0C4.74082 -4.96313e-05 4.63687 0.0239327 4.54221 0.0701212C4.44756 0.11631 4.36469 0.183487 4.29991 0.266538C3.8603 0.830768 0 5.84929 0 8.30767C0.00137967 9.23582 0.269111 10.1441 0.771398 10.9246C1.27369 11.7051 1.98942 12.325 2.83361 12.7107Z" fill="#81CAEF"/>
</svg>
