<svg width="43" height="43" viewBox="0 0 43 43" fill="none" xmlns="http://www.w3.org/2000/svg">
<path fill-rule="evenodd" clip-rule="evenodd" d="M30.8629 0H35.371C35.8485 0 36.2379 0.389428 36.2379 0.866937V6.76211H42.1331C42.6106 6.76211 43 7.15154 43 7.62904V12.1371C43 12.6146 42.6106 13.0041 42.1331 13.0041H36.2379V18.8992C36.2379 19.3767 35.8485 19.7662 35.371 19.7662H30.8629C30.3854 19.7662 29.996 19.3767 29.996 18.8992V13.0041H24.1008C23.6233 13.0041 23.2339 12.6146 23.2339 12.1371V7.62904C23.2339 7.15154 23.6233 6.76211 24.1008 6.76211H29.996V0.866937C29.996 0.389428 30.3854 0 30.8629 0Z" fill="#FE646F"/>
<path fill-rule="evenodd" clip-rule="evenodd" d="M41.2658 7.62902V12.1371C41.2658 12.6146 40.8763 13.004 40.3988 13.004H42.1328C42.6103 13.004 42.9997 12.6146 42.9997 12.1371V7.62902C42.9997 7.15151 42.6103 6.76208 42.1328 6.76208H40.3988C40.8763 6.76208 41.2658 7.15151 41.2658 7.62902ZM36.2376 18.8993V13.0041H34.5037V18.8993C34.5037 19.3768 34.1142 19.7662 33.6367 19.7662H35.3707C35.8482 19.7661 36.2376 19.3767 36.2376 18.8993Z" fill="#FD4755"/>
<path fill-rule="evenodd" clip-rule="evenodd" d="M17.6708 25.3293C15.7613 23.4233 14.0689 21.3136 12.6304 19.0389C12.1051 18.2081 12.1107 17.21 12.6448 16.3852L14.6977 13.2157C15.1357 12.5391 15.2192 11.7672 14.9361 11.0128L11.4049 1.60142C10.8519 0.127541 9.10178 -0.455648 7.77511 0.391956L2.84874 3.53954C0.600512 4.97606 -0.44328 7.55832 0.17606 10.1535C2.08219 18.1411 6.23968 25.3294 11.9858 31.0142C17.6708 36.7605 24.859 40.918 32.8467 42.824C35.4417 43.4433 38.0241 42.3996 39.4606 40.1513L42.6081 35.225C43.4558 33.8983 42.8725 32.1481 41.3986 31.5952L31.9873 28.064C31.2329 27.7808 30.461 27.8644 29.7845 28.3024L26.6149 30.3553C25.7901 30.8894 24.792 30.895 23.9613 30.3697C21.6865 28.9311 19.5767 27.2387 17.6708 25.3293Z" fill="#8AC9FE"/>
<path fill-rule="evenodd" clip-rule="evenodd" d="M35.7431 39.9275C27.7555 38.0214 20.5672 33.8639 14.8823 28.1177C9.13602 22.4328 4.97854 15.2446 3.0725 7.25697C2.72633 5.8065 2.89972 4.36002 3.51264 3.11536L2.84874 3.53955C0.600512 4.97606 -0.44328 7.55832 0.17606 10.1535C2.08219 18.1411 6.23968 25.3294 11.9858 31.0142C17.6708 36.7605 24.859 40.918 32.8467 42.824C35.4417 43.4433 38.0241 42.3996 39.4606 40.1513L39.8848 39.4874C38.64 40.1003 37.1936 40.2737 35.7431 39.9275Z" fill="#60B7FF"/>
</svg>
