<svg width="117" height="159" viewBox="0 0 117 159" fill="none" xmlns="http://www.w3.org/2000/svg">
<path d="M58.5001 158.792C38.2591 158.792 14.6446 154.596 14.3527 142.793L0.855066 18.6184C0.800407 18.1153 0.852326 17.6063 1.00744 17.1245C1.16255 16.6428 1.41739 16.1991 1.75535 15.8224C2.09331 15.4457 2.50682 15.1443 2.96896 14.938C3.4311 14.7317 3.93151 14.6251 4.43761 14.625H112.563C113.069 14.6251 113.569 14.7317 114.031 14.938C114.493 15.1443 114.907 15.4457 115.245 15.8224C115.583 16.1991 115.838 16.6428 115.993 17.1245C116.148 17.6063 116.2 18.1153 116.145 18.6184L102.648 142.793C102.356 154.596 78.7411 158.792 58.5001 158.792Z" fill="#D2D6D6"/>
<path d="M58.5007 36.25C90.3491 36.25 116.167 28.1818 116.167 18.2291C116.167 8.27652 90.3491 0.208313 58.5007 0.208313C26.6522 0.208313 0.833984 8.27652 0.833984 18.2291C0.833984 28.1818 26.6522 36.25 58.5007 36.25Z" fill="#EAEFF0"/>
<path d="M17 55.9999C20.6427 93.3879 25.2857 141.032 25.2857 141.052C27.7452 143.652 39.1931 148 58.5 148C77.8069 148 89.2548 143.652 91.7143 141.052C91.7143 141.052 96.3573 93.3879 100 55.9999H17Z" fill="#0081BD"/>
<path d="M58.5 65.9999C81.4198 65.9999 100 61.5228 100 55.9999C100 50.4771 81.4198 45.9999 58.5 45.9999C35.5802 45.9999 17 50.4771 17 55.9999C17 61.5228 35.5802 65.9999 58.5 65.9999Z" fill="#009AE0"/>
</svg>
