<svg width="101" height="137" viewBox="0 0 101 137" fill="none" xmlns="http://www.w3.org/2000/svg">
<path d="M50.5002 136.792C33.0672 136.792 12.7287 133.178 12.4772 123.012L0.852141 16.0644C0.805065 15.6311 0.849782 15.1927 0.983377 14.7778C1.11697 14.3629 1.33645 13.9807 1.62753 13.6563C1.9186 13.3318 2.27475 13.0723 2.67278 12.8946C3.07081 12.7169 3.5018 12.6251 3.93768 12.625H97.0627C97.4986 12.6251 97.9296 12.7169 98.3276 12.8946C98.7256 13.0723 99.0818 13.3318 99.3728 13.6563C99.6639 13.9807 99.8834 14.3629 100.017 14.7778C100.151 15.1927 100.195 15.6311 100.148 16.0644L88.5231 123.012C88.2717 133.178 67.9332 136.792 50.5002 136.792Z" fill="#D2D6D6"/>
<path d="M50.5007 31.25C77.9308 31.25 100.167 24.3011 100.167 15.7291C100.167 7.15723 77.9308 0.208313 50.5007 0.208313C23.0705 0.208313 0.833984 7.15723 0.833984 15.7291C0.833984 24.3011 23.0705 31.25 50.5007 31.25Z" fill="#EAEFF0"/>
<path d="M14.7012 72.0476C17.8434 94.5909 21.8485 123.318 21.8485 123.33C23.9702 124.898 33.8454 127.519 50.4999 127.519C67.1544 127.519 77.0296 124.898 79.1512 123.33C79.1512 123.33 83.1563 94.5909 86.2986 72.0476H14.7012Z" fill="#0081BD"/>
<path d="M50.4999 78.4978C70.2709 78.4978 86.2986 75.7544 86.2986 72.3701C86.2986 68.9859 70.2709 66.2424 50.4999 66.2424C30.7288 66.2424 14.7012 68.9859 14.7012 72.3701C14.7012 75.7544 30.7288 78.4978 50.4999 78.4978Z" fill="#009AE0"/>
</svg>
