<svg width="53" height="53" viewBox="0 0 53 53" fill="none" xmlns="http://www.w3.org/2000/svg">
<mask id="mask0_325_1595" style="mask-type:luminance" maskUnits="userSpaceOnUse" x="0" y="0" width="53" height="53">
<path d="M0 0H53V53H0V0Z" fill="white"/>
</mask>
<g mask="url(#mask0_325_1595)">
<path d="M34.8687 15.3421C34.8687 16.0819 34.5748 16.7914 34.0517 17.3145C33.5286 17.8377 32.819 18.1315 32.0792 18.1315H20.9213C20.1815 18.1315 19.472 17.8377 18.9489 17.3145C18.4258 16.7914 18.1319 16.0819 18.1319 15.3421V4.18417C18.1319 3.44436 18.4258 2.73484 18.9489 2.21172C19.472 1.68859 20.1815 1.3947 20.9213 1.3947H32.0792C32.819 1.3947 33.5286 1.68859 34.0517 2.21172C34.5748 2.73484 34.8687 3.44436 34.8687 4.18417V15.3421ZM1.39502 20.921V48.8158C1.39502 49.5556 1.68891 50.2651 2.21204 50.7882C2.73517 51.3113 3.44468 51.6052 4.18449 51.6052H48.8161C49.5559 51.6052 50.2654 51.3113 50.7885 50.7882C51.3117 50.2651 51.6055 49.5556 51.6055 48.8158V20.921H1.39502Z" fill="#D1D3D4"/>
<path d="M26.5003 18.1317H4.18449C3.44468 18.1317 2.73517 18.4256 2.21204 18.9487C1.68891 19.4718 1.39502 20.1813 1.39502 20.9211H29.2898C29.2898 20.1813 28.9959 19.4718 28.4727 18.9487C27.9496 18.4256 27.2401 18.1317 26.5003 18.1317Z" fill="#808285"/>
<path d="M48.8157 18.1317H26.4999C25.7601 18.1317 25.0506 18.4256 24.5275 18.9487C24.0043 19.4718 23.7104 20.1813 23.7104 20.9211H51.6052C51.6052 20.1813 51.3113 19.4718 50.7882 18.9487C50.265 18.4256 49.5555 18.1317 48.8157 18.1317Z" fill="#808285"/>
<path d="M48.8162 37.6578H4.18457V32.0789H48.8162V37.6578ZM48.8162 29.2894H4.18457V23.7105H48.8162V29.2894ZM48.8162 46.0262H4.18457V40.4473H48.8162V46.0262Z" fill="#55ACEE"/>
<path d="M40.4475 51.6052H12.5527V18.1315H40.4475V51.6052Z" fill="#E6E7E8"/>
<path d="M37.6581 34.8684H15.3423V29.2894H37.6581V34.8684ZM37.6581 26.5H15.3423V20.921H37.6581V26.5ZM37.6581 43.2368H15.3423V37.6579H37.6581V43.2368Z" fill="#55ACEE"/>
<path d="M33.4732 51.6052H19.5259V46.0263H33.4732V51.6052Z" fill="#3B88C3"/>
<path d="M32.0788 6.9737H27.8946V2.78949H25.1051V6.9737H20.9209V9.76318H25.1051V13.9474H27.8946V9.76318H32.0788V6.9737Z" fill="#DD2E44"/>
<path d="M37.658 15.342H15.3422C14.6024 15.342 13.8929 15.6359 13.3698 16.159C12.8466 16.6821 12.5527 17.3917 12.5527 18.1315H40.4475C40.4475 17.3917 40.1536 16.6821 39.6305 16.159C39.1073 15.6359 38.3978 15.342 37.658 15.342Z" fill="#808285"/>
</g>
</svg>
